#!OML:ASF I:\Actors\actors\Patient Classification 2\Patient 1\Session 1\actor1.ASF
:FULLY-SPECIFIED
:DEGREES
52
root -0.671432 18.691 5.92048 2.39934 -1.80626 -3.17264
lowerback -0.197887 0.567007 0.564383
upperback -2.68263 0.791147 1.22125
thorax -2.64998 0.397602 0.920201
lowerneck -11.944 -2.3257 -1.6868
upperneck 26.0914 -3.80991 3.22216
head 10.4003 -1.54968 0.958172
rclavicle 5.20257e-015 5.76476e-015
rhumerus -47.7613 -3.15033 -86.0466
rradius 40.6562
rwrist 23.4156
rhand -7.29043 -29.4209
rfingers 7.12502
rthumb 18.5915 -58.5524
lclavicle 5.20257e-015 5.76476e-015
lhumerus -43.8358 0.772267 90.8178
lradius 37.715
lwrist -10.2068
lhand -8.92775 -29.7328
lfingers 7.12502
lthumb 17.016 -0.458091
rfemur 0 0 0
rtibia 0
rfoot 0 0
rtoes 0
lfemur -5.21488 -7.84679 -11.3906
ltibia 22.1692
lfoot -24.1676 14.5343
ltoes -55.3545
53
root -0.671741 18.6906 5.92044 2.39439 -1.79557 -3.16516
lowerback -0.189395 0.563697 0.546181
upperback -2.67307 0.786437 1.21944
thorax -2.64506 0.395638 0.928595
lowerneck -11.9309 -2.3182 -1.7042
upperneck 26.0747 -3.80759 3.26989
head 10.3929 -1.54508 0.978495
rclavicle 2.62458e-015 1.2424e-015
rhumerus -47.7178 -3.14601 -86.0828
rradius 40.6369
rwrist 23.4067
rhand -7.228 -29.622
rfingers 7.12502
rthumb 18.6515 -58.7479
lclavicle 2.62458e-015 1.2424e-015
lhumerus -43.8144 0.65795 90.8963
lradius 37.7244
lwrist -9.92129
lhand -9.05499 -29.6112
lfingers 7.12502
lthumb 16.8935 -0.326002
rfemur 0 0 0
rtibia 0
rfoot 0 0
rtoes 0
lfemur -5.20938 -7.90326 -11.3998
ltibia 22.1663
lfoot -24.2228 14.5012
ltoes -55.2348
54
root -0.67169 18.6903 5.91989 2.38524 -1.80041 -3.1409
lowerback -0.164122 0.573395 0.515849
upperback -2.66302 0.799043 1.21287
thorax -2.6494 0.402535 0.938355
lowerneck -11.9422 -2.31594 -1.68003
upperneck 26.0619 -3.80138 3.24128
head 10.3891 -1.54311 0.964834
rclavicle -2.21552e-014 -1.14798e-014
rhumerus -47.6841 -3.13555 -86.1035
rradius 40.6416
rwrist 23.3889
rhand -7.14459 -29.8119
rfingers 7.12502
rthumb 18.7318 -58.93
lclavicle -2.21552e-014 -1.14798e-014
lhumerus -43.7949 0.54844 90.9793
lradius 37.6924
lwrist -9.52604
lhand -9.24245 -29.8259
lfingers 7.12502
lthumb 16.713 -0.52539
rfemur 0 0 0
rtibia 0
rfoot 0 0
rtoes 0
lfemur -5.19938 -7.80133 -11.4245
ltibia 22.1648
lfoot -24.1917 14.4527
ltoes -55.2666
55
root -0.671651 18.6908 5.9191 2.39 -1.79534 -3.15503
lowerback -0.128455 0.580572 0.527092
upperback -2.66737 0.80954 1.22254
thorax -2.67411 0.407643 0.941368
lowerneck -11.9732 -2.31122 -1.69931
upperneck 26.0913 -3.79387 3.25223
head 10.4064 -1.53949 0.972733
rclavicle -5.33613e-015 1.54058e-015
rhumerus -47.6801 -3.12132 -86.0995
rradius 40.6762
rwrist 23.365
rhand -6.99965 -29.9143
rfingers 7.12502
rthumb 18.8712 -59.0189
lclavicle -5.33613e-015 1.54058e-015
lhumerus -43.8243 0.212568 91.3183
lradius 37.6403
lwrist -7.96537
lhand -9.9716 -30.3447
lfingers 7.12502
lthumb 16.011 -0.986337
rfemur 0 0 0
rtibia 0
rfoot 0 0
rtoes 0
lfemur -5.2136 -7.69691 -11.3989
ltibia 22.1678
lfoot -24.1446 14.391
ltoes -55.3351
56
root -0.672453 18.6913 5.91836 2.40359 -1.77622 -3.18598
lowerback -0.117045 0.571488 0.528589
upperback -2.66807 0.798147 1.24643
thorax -2.68146 0.402226 0.965194
lowerneck -11.9837 -2.28843 -1.74381
upperneck 26.1205 -3.77358 3.33118
head 10.4212 -1.52485 1.01096
rclavicle 2.70534e-015 -9.74045e-015
rhumerus -47.67 -3.10658 -86.0992
rradius 40.6948
rwrist 23.3766
rhand -6.9109 -29.9268
rfingers 7.12502
rthumb 18.9565 -59.023
lclavicle 2.70534e-015 -9.74045e-015
lhumerus -43.802 0.445302 91.118
lradius 37.6704
lwrist -8.91854
lhand -9.54605 -29.8567
lfingers 7.12502
lthumb 16.4208 -0.53168
rfemur 0 0 0
rtibia 0
rfoot 0 0
rtoes 0
lfemur -5.24409 -7.74419 -11.3584
ltibia 22.176
lfoot -24.1635 14.3811
ltoes -55.3113
57
root -0.673095 18.6914 5.918 2.4094 -1.76082 -3.17136
lowerback -0.0974427 0.562263 0.486595
upperback -2.67481 0.785685 1.24984
thorax -2.6999 0.397027 0.992277
lowerneck -11.9311 -2.25931 -1.70387
upperneck 26.0732 -3.73355 3.30829
head 10.391 -1.50631 1.00143
rclavicle 8.57259e-016 -1.75427e-014
rhumerus -47.6997 -3.0872 -86.1209
rradius 40.71
rwrist 23.4205
rhand -6.93784 -29.8757
rfingers 7.12502
rthumb 18.9306 -58.9745
lclavicle 8.57259e-016 -1.75427e-014
lhumerus -43.8452 0.263164 91.2502
lradius 37.6415
lwrist -8.14014
lhand -10.0061 -30.3419
lfingers 7.12502
lthumb 15.9778 -0.980903
rfemur 0 0 0
rtibia 0
rfoot 0 0
rtoes 0
lfemur -5.25931 -7.76868 -11.373
ltibia 22.181
lfoot -24.1496 14.4137
ltoes -55.3459
58
root -0.672894 18.6915 5.91757 2.40604 -1.75029 -3.13716
lowerback -0.0384154 0.565316 0.450986
upperback -2.69387 0.789938 1.23499
thorax -2.75311 0.399822 0.996205
lowerneck -11.8846 -2.25954 -1.64958
upperneck 26.0414 -3.72396 3.22939
head 10.3671 -1.50663 0.965727
rclavicle -5.66847e-015 -5.36719e-015
rhumerus -47.7603 -3.06449 -86.1452
rradius 40.7501
rwrist 23.4323
rhand -6.9497 -29.7972
rfingers 7.12502
rthumb 18.9192 -58.8971
lclavicle -5.66847e-015 -5.36719e-015
lhumerus -43.8131 0.651095 90.8207
lradius 37.6639
lwrist -9.99499
lhand -9.19219 -30.0371
lfingers 7.12502
lthumb 16.7614 -0.740623
rfemur 0 0 0
rtibia 0
rfoot 0 0
rtoes 0
lfemur -5.26152 -7.73269 -11.4091
ltibia 22.1816
lfoot -24.0963 14.4375
ltoes -55.4302
59
root -0.672818 18.6922 5.91663 2.40891 -1.74247 -3.11989
lowerback 0.00296121 0.571471 0.436374
upperback -2.69626 0.798249 1.22454
thorax -2.77905 0.40419 0.993038
lowerneck -11.9042 -2.29779 -1.71363
upperneck 26.0761 -3.78173 3.2913
head 10.3881 -1.53169 0.991305
rclavicle 1.9133e-015 -1.33186e-014
rhumerus -47.7616 -3.05601 -86.1575
rradius 40.7839
rwrist 23.3944
rhand -6.94817 -29.7748
rfingers 7.12502
rthumb 18.9207 -58.8746
lclavicle 1.9133e-015 -1.33186e-014
lhumerus -43.7914 0.724076 90.6858
lradius 37.6938
lwrist -10.5606
lhand -8.907 -29.9629
lfingers 7.12502
lthumb 17.036 -0.689939
rfemur 0 0 0
rtibia 0
rfoot 0 0
rtoes 0
lfemur -5.27085 -7.73342 -11.4276
ltibia 22.181
lfoot -24.082 14.4647
ltoes -55.4375
60
root -0.673132 18.6934 5.91503 2.43581 -1.71741 -3.11478
lowerback 0.0107732 0.573785 0.431475
upperback -2.69004 0.801211 1.22132
thorax -2.7771 0.405737 0.992345
lowerneck -11.9357 -2.33007 -1.82543
upperneck 26.0755 -3.83943 3.43079
head 10.4012 -1.55255 1.05237
rclavicle -2.31087e-015 3.62782e-015
rhumerus -47.722 -3.0531 -86.1579
rradius 40.7798
rwrist 23.3971
rhand -7.00951 -29.8228
rfingers 7.12502
rthumb 18.8617 -58.9284
lclavicle -2.31087e-015 3.62782e-015
lhumerus -43.7517 0.640183 90.7007
lradius 37.7051
lwrist -10.4687
lhand -8.90396 -30.0118
lfingers 7.12502
lthumb 17.0389 -0.739032
rfemur 0 0 0
rtibia 0
rfoot 0 0
rtoes 0
lfemur -5.31518 -7.73936 -11.4248
ltibia 22.1838
lfoot -24.0641 14.437
ltoes -55.3922
61
root -0.673643 18.6938 5.91348 2.45752 -1.68815 -3.11373
lowerback 0.020694 0.579581 0.429108
upperback -2.67984 0.808962 1.22341
thorax -2.77234 0.40968 0.995571
lowerneck -11.9561 -2.33895 -1.88287
upperneck 26.0498 -3.85396 3.49245
head 10.3988 -1.55759 1.08196
rclavicle 3.84213e-015 -6.75868e-015
rhumerus -47.6809 -3.0174 -86.1615
rradius 40.7437
rwrist 23.4098
rhand -7.15449 -29.8297
rfingers 7.12502
rthumb 18.7222 -58.9487
lclavicle 3.84213e-015 -6.75868e-015
lhumerus -43.6843 0.609973 90.6999
lradius 37.6891
lwrist -10.4642
lhand -8.90692 -30.0799
lfingers 7.12502
lthumb 17.036 -0.806936
rfemur 0 0 0
rtibia 0
rfoot 0 0
rtoes 0
lfemur -5.35941 -7.69931 -11.4118
ltibia 22.1904
lfoot -24.0294 14.3348
ltoes -55.3533
